<svg width="20" height="14" viewBox="0 0 20 14" fill="none" xmlns="http://www.w3.org/2000/svg">
<g id="Flags/United Kingdom (GB)">
<g clip-path="url(#clip0_163_307)">
<path id="Vector" d="M0 0H20V14H0V0Z" fill="#012169"/>
<path id="Vector_2" d="M2.34375 0L9.96875 5.27917L17.5625 0H20V1.80833L12.5 7.02917L20 12.2208V14H17.5L10 8.77917L2.53125 14H0V12.25L7.46875 7.05833L0 1.86667V0H2.34375Z" fill="white"/>
<path id="Vector_3" d="M13.25 8.19583L20 12.8333V14L11.5312 8.19583H13.25ZM7.5 8.77917L7.6875 9.8L1.6875 14H0L7.5 8.77917ZM20 0V0.0875L12.2188 5.57083L12.2812 4.2875L18.4375 0H20ZM0 0L7.46875 5.13333H5.59375L0 1.225V0Z" fill="#C8102E"/>
<path id="Vector_4" d="M7.53125 0V14H12.5312V0H7.53125ZM0 4.66667V9.33333H20V4.66667H0Z" fill="white"/>
<path id="Vector_5" d="M0 5.62917V8.42917H20V5.62917H0ZM8.53125 0V14H11.5312V0H8.53125Z" fill="#C8102E"/>
</g>
</g>
<defs>
<clipPath id="clip0_163_307">
<rect width="20" height="14" rx="4" fill="white"/>
</clipPath>
</defs>
</svg>
