<svg width="20" height="16" viewBox="0 0 20 16" fill="none" xmlns="http://www.w3.org/2000/svg">
<g id="arrow-left">
<path id="Vector (Stroke)" fill-rule="evenodd" clip-rule="evenodd" d="M8.27711 1.22258C8.66763 1.6131 8.66763 2.24627 8.27711 2.63679L2.91421 7.99969L8.27711 13.3626C8.66763 13.7531 8.66763 14.3863 8.27711 14.7768C7.88658 15.1673 7.25342 15.1673 6.86289 14.7768L0.792893 8.70679C0.605357 8.51926 0.5 8.2649 0.5 7.99969C0.5 7.73447 0.605357 7.48012 0.792893 7.29258L6.86289 1.22258C7.25342 0.832056 7.88658 0.832056 8.27711 1.22258Z" fill="black"/>
<path id="Vector (Stroke)_2" fill-rule="evenodd" clip-rule="evenodd" d="M0.669922 8C0.669922 7.44772 1.11764 7 1.66992 7H18.4999C19.0522 7 19.4999 7.44772 19.4999 8C19.4999 8.55228 19.0522 9 18.4999 9H1.66992C1.11764 9 0.669922 8.55228 0.669922 8Z" fill="black"/>
</g>
</svg>
